<?xml version="1.0" encoding="UTF-8" standalone="no"?>
<svg
   xmlns:dc="http://purl.org/dc/elements/1.1/"
   xmlns:cc="http://web.resource.org/cc/"
   xmlns:rdf="http://www.w3.org/1999/02/22-rdf-syntax-ns#"
   xmlns:svg="http://www.w3.org/2000/svg"
   xmlns="http://www.w3.org/2000/svg"
   xmlns:sodipodi="http://sodipodi.sourceforge.net/DTD/sodipodi-0.dtd"
   xmlns:inkscape="http://www.inkscape.org/namespaces/inkscape"
   viewBox="0 0 48 48"
   version="1.0"
   id="svg2"
   sodipodi:version="0.32"
   inkscape:version="0.45.1"
   sodipodi:docname="feedthing-vector.svg"
   inkscape:output_extension="org.inkscape.output.svg.inkscape"
   sodipodi:docbase="C:\Users\Pip\Desktop\feedthing images"
   inkscape:export-filename="C:\Users\Pip\Desktop\feedthing images\feedthing-vector.png"
   inkscape:export-xdpi="385.89001"
   inkscape:export-ydpi="385.89001"
   height="100%"
   width="100%">
  <metadata
     id="metadata81">
    <rdf:RDF>
      <cc:Work
         rdf:about="">
        <dc:format>image/svg+xml</dc:format>
        <dc:type
           rdf:resource="http://purl.org/dc/dcmitype/StillImage" />
      </cc:Work>
    </rdf:RDF>
  </metadata>
  <defs
     id="defs79" />
  <sodipodi:namedview
     inkscape:window-height="750"
     inkscape:window-width="1280"
     inkscape:pageshadow="2"
     inkscape:pageopacity="0.0"
     guidetolerance="10.0"
     gridtolerance="10.0"
     objecttolerance="10.0"
     borderopacity="1.0"
     bordercolor="#666666"
     pagecolor="#ffffff"
     id="base"
     inkscape:zoom="8.8859752"
     inkscape:cx="33.840304"
     inkscape:cy="30.999089"
     inkscape:window-x="-8"
     inkscape:window-y="-8"
     inkscape:current-layer="svg2"
     inkscape:showpageshadow="false"
     showborder="false"
     borderlayer="false"
     showgrid="false" />
  <path
     d="M 11.4,4.5 C 16.4,1.8 22.6,-0.2 28,2.6 C 32.2,1.7 36.6,0.8 40.9,1.5 C 43.2,2 45.7,3 46.5,5.4 C 48,8.6 46.176392,10.705305 44.376392,13.105305 C 43.264456,12.868966 47.6,6.7 44.1,4 C 39,0.5 32.6,3.2 26.9,3.4 L 26.1,3 C 24.1,2.2 22,2.1 19.9,2.3 C 16.4,3.2 13,4.6 10,6.5 C 8.8,7.4 7.7,8.3 6.6,9.3 C 5,11.1 3.8,13.3 3.2,15.7 C 3.2,15.8 3.1,16 3.1,16 L 3.1,16.3 C 2.9,17.1 2.7,18.7 2.6,19.5 C 2.7,20.2 2.9,21.7 3,22.4 L 1.8,21.6 C 0.3,14.5 5.5,7.9 11.4,4.5 z "
     id="path6"
     style="fill:#120c02;stroke:#120c02;stroke-width:0.09375"
     sodipodi:nodetypes="cccccccccccccccccc" />
  <path
     d="M 19.9,2.3 C 22,2.1 24.1,2.2 26.1,3 C 25.5,5.1 24.9,7.1 24.1,9.1 C 25.4,12.8 26.5,16.6 27.2,20.5 L 26.2,20.7 C 25.4,17.3 25.3,13.5 23.5,10.5 C 21.3,8.7 18.6,10.9 16.3,11.3 C 17.9,14.7 19,18.4 19.9,22.1 C 19.6,22.1 19,22.2 18.7,22.2 C 17.9,18.6 18.1,13.2 13.7,12 C 12,15.4 9.7,18.6 8.7,22.4 C 8.4,22.3 7.8,22.2 7.5,22.2 C 8.9,18.7 10.8,15.5 12.2,12.1 C 9.2,13.2 6.2,14.6 3.3,16 L 3.2,15.7 C 5.6,14.1 8.1,12.6 10.5,11.1 C 9.2,10.5 7.9,9.9 6.6,9.3 C 7.7,8.3 8.8,7.4 10,6.5 C 12.1,10.3 17.5,9.7 20.5,7.5 C 22.7,6 20.5,3.9 19.9,2.3 z "
     id="path8"
     style="fill:#3fa420;stroke:#3fa420;stroke-width:0.09375" />
  <path
     d="M 26.9,3.4 C 32.6,3.2 39,0.5 44.1,4 C 47.6,6.7 45.094696,10.879575 43.34191,12.946154 C 41.814059,14.542971 39.5,18.3 37.5,20.4 C 36.1,23.1 35.4,26.2 35.7,29.3 C 31,30 32,24.4 32.8,21.6 L 33.841484,19.617011 C 34.53694,18.313463 36.571958,16.889727 37.15191,15.856329 C 38.795937,13.415658 39.885754,12.16892 41.135606,10.187578 C 42.606116,7.6650372 42.4,8.1 41.7,5.5 C 38,5.1 34.3,5 30.8,6.3 C 29.5,5.4 28.3,4.3 26.9,3.4 z "
     id="path10"
     style="fill:#097b09;stroke:#097b09;stroke-width:0.09375"
     sodipodi:nodetypes="cccccccccccc" />
  <path
     d="M 10,6.5 C 13,4.6 16.4,3.2 19.9,2.3 C 20.5,3.9 22.7,6 20.5,7.5 C 17.5,9.7 12.1,10.3 10,6.5 z "
     id="path12"
     style="fill:#72c53d;stroke:#72c53d;stroke-width:0.09375" />
  <path
     d="M 26.1,3 L 26.9,3.4 C 28.3,4.3 29.5,5.4 30.8,6.3 C 31.3,6.7 32.4,7.5 32.9,7.9 C 35.4,11.3 35.2,15.8 32.7,19.2 C 32.6,19.4 32.4,19.6 32.3,19.7 C 32.1,19.9 31.9,20.2 31.8,20.4 L 31.4,21 C 31.3,24.6 29.4,27.7 27.5,30.6 C 26.9,30.9 25.8,31.6 25.2,31.9 C 25.8,31.1 26.5,30.2 27.1,29.4 C 28,27.8 29,26.1 29.3,24.3 C 29.5,22.9 29.7,21.4 29.8,20 C 29.2,20.1 27.9,20.4 27.2,20.5 C 26.5,16.6 25.4,12.8 24.1,9.1 C 24.9,7.1 25.5,5.1 26.1,3 z "
     id="path14"
     style="fill:#1c8d0c;stroke:#1c8d0c;stroke-width:0.09375" />
  <path
     d="M 30.8,6.3 C 33.599994,5.4486506 41.028839,3.7776439 41.993833,6.0552363 C 44.359551,8.0304043 35.827361,17.406451 33.786955,19.590898 C 34.591413,17.289946 41.758448,10.530797 41.597117,6.3672831 C 40.567143,5.0049496 35.3,5.6236074 32.1,6.5 L 32.9,7.9 C 32.4,7.5 31.3,6.7 30.8,6.3 z "
     id="path16"
     style="fill:#120c02;stroke:#120c02;stroke-width:0.09375"
     sodipodi:nodetypes="ccccccc" />
  <path
     d="M 3.2,15.7 C 3.8,13.3 5,11.1 6.6,9.3 C 7.9,9.9 9.2,10.5 10.5,11.1 C 8.1,12.6 5.6,14.1 3.2,15.7 z "
     id="path20"
     style="fill:#1c8d0c;stroke:#1c8d0c;stroke-width:0.09375" />
  <path
     d="M 16.3,11.3 C 18.6,10.9 21.3,8.7 23.5,10.5 C 25.3,13.5 25.4,17.3 26.2,20.7 C 24.1,21.2 22,21.8 19.9,22.1 C 19,18.4 17.9,14.7 16.3,11.3 z "
     id="path22"
     style="fill:#1c8d0c;stroke:#1c8d0c;stroke-width:0.09375" />
  <path
     d="M 3.3,16 C 6.2,14.6 9.2,13.2 12.2,12.1 C 10.8,15.5 8.9,18.7 7.5,22.2 C 5.7,21.5 4.1,20.5 2.6,19.5 C 2.7,18.7 2.9,17.1 3.1,16.3 C 3.1,16.2 3.3,16.1 3.3,16 z "
     id="path24"
     style="fill:#1c8d0c;stroke:#1c8d0c;stroke-width:0.09375" />
  <path
     d="M 13.7,12 C 18.1,13.2 17.9,18.6 18.7,22.2 C 15.4,22.6 12,22.7 8.7,22.4 C 9.7,18.6 12,15.4 13.7,12 z "
     id="path26"
     style="fill:#1c8d0c;stroke:#1c8d0c;stroke-width:0.09375" />
  <path
     d="M 37.5,20.4 C 39.5,18.3 45.817166,8.3022377 44.95829,12.339388 C 43.25829,14.639388 40.3,18.6 38.3,20.5 C 42.1,21.1 46.9,22.3 48,26.6 L 48,27.6 L 47.6,28.6 C 47.3,24.2 43.1,22.3 39.4,21.4 C 38.7,21.9 38,22.5 37.3,23.1 C 40.4,23.4 44.4,23.9 45.9,27.2 C 45.3,29.4 42.9,30.4 41,31 C 36.5,32.4 31.8,31.9 27.5,30.6 C 29.4,27.7 31.3,24.6 31.4,21 L 32,21.8 L 32.8,21.6 C 32,24.4 31,30 35.7,29.3 C 35.4,26.2 36.1,23.1 37.5,20.4 z "
     id="path28"
     style="fill:#120c02;stroke:#120c02;stroke-width:0.09375"
     sodipodi:nodetypes="cccccccccccccccc" />
  <path
     d="M 3.1,16 L 3.3,16 C 3.3,16.1 3.1,16.2 3.1,16.3 L 3.1,16 z "
     id="path32"
     style="fill:#3fa420;stroke:#3fa420;stroke-width:0.09375" />
  <path
     d="M 2.6,19.5 C 4.1,20.5 5.7,21.5 7.5,22.2 C 7.8,22.2 8.4,22.3 8.7,22.4 C 12,22.7 15.4,22.6 18.7,22.2 C 19,22.2 19.6,22.1 19.9,22.1 C 22,21.8 24.1,21.2 26.2,20.7 L 27.2,20.5 C 27.9,20.4 29.2,20.1 29.8,20 C 29.7,21.4 29.5,22.9 29.3,24.3 C 29.2,23.4 29.2,21.6 29.1,20.6 C 27.9,21.1 26.8,21.5 25.6,22 C 21.7,23.7 17.4,24.3 13.2,25 L 11.9,25.2 C 10.7,25.2 9.6,25.2 8.5,25.3 C 8.1,25.3 7.3,25.4 7,25.4 C 6.5,25.1 5.7,24.4 5.2,24 C 5,23.8 4.7,23.5 4.5,23.3 C 4.1,23.1 3.4,22.7 3,22.4 C 2.9,21.7 2.7,20.2 2.6,19.5 z "
     id="path36"
     style="fill:#a92439;stroke:#a92439;stroke-width:0.09375" />
  <path
     d="M 31.8,20.4 C 31.9,20.2 32.071866,19.914067 32.271866,19.714067 L 33.794905,19.724073 L 33.503288,20.254562 L 31.8,20.4 z "
     id="path38"
     style="fill:#120c02;stroke:#120c02;stroke-width:0.09375"
     sodipodi:nodetypes="ccccc" />
  <path
     d="M 25.6,22 C 26.8,21.5 27.9,21.1 29.1,20.6 C 29.2,21.6 29.2,23.4 29.3,24.3 C 29,26.1 28,27.8 27.1,29.4 C 25.6,29.4 24.1,29.4 22.6,29.3 C 23.5,30.2 24.4,31.1 25.2,31.9 C 25.1,36.1 25.3,40.4 26.6,44.4 C 27.4,45 28.1,45.6 28.9,46.1 C 29.9,46.4 30.9,46.6 31.8,46.8 C 34.5,47.1 37.2,47 39.9,47 L 39.3,48 L 30.550443,48 L 29.9,47.7 C 28.2,46.8 26,46 25.2,43.9 C 24.5,41.4 24.3,38.7 23.9,36.2 C 20.9,38.1 17.2,39.8 13.7,38.2 C 9.3,37 6.7,32.7 6.5,28.3 C 3.9,26.8 0.4,25.4 1.8,21.6 L 3,22.4 C 2.7,24 3.2,24.3 4.5,23.3 C 4.7,23.5 5,23.8 5.2,24 C 5.4,24.7 5.7,26 5.8,26.7 C 6.1,26.4 6.7,25.7 7,25.4 C 7.3,25.4 8.1,25.3 8.5,25.3 C 8.3,28.5 7.5,32.4 10.2,34.8 C 13.7,38.8 20.5,38.2 23.6,33.9 C 23.6,33.9 23.7,33.7 23.8,33.7 L 23.5,33.6 C 22.2,33.1 20.8,32.3 19.3,32.5 C 19.5,33.5 19.8,34.4 20.5,35.2 C 19.9,35.5 18.7,35.9 18.1,36.1 C 18,35.1 17.5,34.2 16.7,33.4 C 18.2,31.7 19.7,29.8 20.5,27.7 C 20.7,26.8 21,25 21.2,24.1 C 22.9,23.8 24,25.4 25.2,26.3 C 25.4,24.9 25.5,23.4 25.6,22 z "
     id="path40"
     style="fill:#43131e;stroke:#43131e;stroke-width:0.09375"
     sodipodi:nodetypes="cccccccccccccccccccccccccccccccccccc" />
  <path
     d="M 31.8,20.4 L 33.48967,20.262095 C 32.902003,21.484197 32.994495,21.18714 32.8,21.6 L 32,21.8 L 31.4,21 L 31.8,20.4 z "
     id="path42"
     style="fill:#a71313;stroke:#a71313;stroke-width:0.09375"
     sodipodi:nodetypes="cccccc" />
  <path
     d="M 3,22.4 C 3.4,22.7 4.1,23.1 4.5,23.3 C 3.2,24.3 2.7,24 3,22.4 z "
     id="path44"
     style="fill:#ffffff;stroke:#ffffff;stroke-width:0.09375" />
  <path
     d="M 13.2,25 C 17.4,24.3 21.7,23.7 25.6,22 C 25.5,23.4 25.4,24.9 25.2,26.3 C 24,25.4 22.9,23.8 21.2,24.1 C 21,25 20.7,26.8 20.5,27.7 C 19.7,26.4 18.9,25.3 18,24.2 C 17.1,25.4 16.2,26.6 15.2,27.8 C 14.6,27 14,26.2 13.4,25.4 L 13.2,25 z "
     id="path46"
     style="fill:#ffffff;stroke:#ffffff;stroke-width:0.09375" />
  <path
     d="M 37.3,23.1 C 38,22.5 38.7,21.9 39.4,21.4 C 43.1,22.3 47.3,24.2 47.6,28.6 C 47.6,28.7 47.5,29 47.4,29.1 C 45.7,30 43.9,30.9 42.2,31.9 C 39,32.6 36,34.1 33.7,36.5 C 33.3,40.2 31,43.2 28.9,46.1 C 28.1,45.6 27.4,45 26.6,44.4 C 25.3,40.4 25.1,36.1 25.2,31.9 C 25.8,31.6 26.9,30.9 27.5,30.6 C 31.8,31.9 36.5,32.4 41,31 C 42.9,30.4 45.3,29.4 45.9,27.2 C 44.4,23.9 40.4,23.4 37.3,23.1 z "
     id="path48"
     style="fill:#a71313;stroke:#a71313;stroke-width:0.09375" />
  <path
     d="M 5.2,24 C 5.7,24.4 6.5,25.1 7,25.4 C 6.7,25.7 6.1,26.4 5.8,26.7 C 5.7,26 5.4,24.7 5.2,24 z "
     id="path50"
     style="fill:#ffffff;stroke:#ffffff;stroke-width:0.09375" />
  <path
     d="M 8.5,25.3 C 9.6,25.2 10.7,25.2 11.9,25.2 C 11.5,26.1 11.1,27.1 10.8,28 C 10.4,27.6 9.7,26.7 9.3,26.3 C 9.1,26.1 8.7,25.5 8.5,25.3 z "
     id="path52"
     style="fill:#ffffff;stroke:#ffffff;stroke-width:0.09375" />
  <path
     d="M 11.9,25.2 L 13.2,25 L 13.4,25.4 C 12.6,28.7 13.7,31.7 16.5,33.7 C 16.1,34.5 15.8,35.3 15.5,36.2 C 15,36.1 13.9,35.8 13.4,35.7 C 13.5,34.9 13.6,33.2 13.6,32.4 C 12.5,32.2 11.6,32.5 10.8,33.4 C 10.6,33.2 10.4,32.7 10.2,32.4 C 10.7,31.4 10.8,30.3 10.4,29.2 C 10,29.3 9.1,29.3 8.7,29.4 C 8.8,28.6 9.1,27.1 9.3,26.3 C 9.7,26.7 10.4,27.6 10.8,28 C 11.1,27.1 11.5,26.1 11.9,25.2 z "
     id="path54"
     style="fill:#43131e;stroke:#43131e;stroke-width:0.09375" />
  <path
     d="M 15.2,27.8 C 16.2,26.6 17.1,25.4 18,24.2 C 18.9,25.3 19.7,26.4 20.5,27.7 C 19.7,29.8 18.2,31.7 16.7,33.4 L 16.5,33.7 C 13.7,31.7 12.6,28.7 13.4,25.4 C 14,26.2 14.6,27 15.2,27.8 z "
     id="path56"
     style="fill:#67172b;stroke:#67172b;stroke-width:0.09375" />
  <path
     d="M 8.5,25.3 C 8.7,25.5 9.1,26.1 9.3,26.3 C 9.1,27.1 8.8,28.6 8.7,29.4 L 8.4,30.2 C 8.9,30.8 9.8,31.9 10.2,32.4 C 10.4,32.7 10.6,33.2 10.8,33.4 C 11.2,34.6 12.1,35.6 13.4,35.7 C 13.9,35.8 15,36.1 15.5,36.2 C 16.1,36.2 17.5,36.1 18.1,36.1 C 18.7,35.9 19.9,35.5 20.5,35.2 C 21.6,34.9 22.6,34.5 23.6,33.9 C 20.5,38.2 13.7,38.8 10.2,34.8 C 7.5,32.4 8.3,28.5 8.5,25.3 z "
     id="path58"
     style="fill:#a92439;stroke:#a92439;stroke-width:0.09375" />
  <path
     d="M 8.7,29.4 C 9.1,29.3 10,29.3 10.4,29.2 C 10.8,30.3 10.7,31.4 10.2,32.4 C 9.8,31.9 8.9,30.8 8.4,30.2 L 8.7,29.4 z "
     id="path62"
     style="fill:#ffffff;stroke:#ffffff;stroke-width:0.09375" />
  <path
     d="M 22.6,29.3 C 24.1,29.4 25.6,29.4 27.1,29.4 C 26.5,30.2 25.8,31.1 25.2,31.9 C 24.4,31.1 23.5,30.2 22.6,29.3 z "
     id="path64"
     style="fill:#ffffff;stroke:#ffffff;stroke-width:0.09375" />
  <path
     d="M 42.2,31.9 C 43.9,30.9 45.7,30 47.4,29.1 C 44.7,35 42.1,40.9 39.9,47 C 37.2,47 34.5,47.1 31.8,46.8 C 35.8,42.2 38.2,36.5 42.2,31.9 z "
     id="path66"
     style="fill:#4f0d0d;stroke:#4f0d0d;stroke-width:0.09375" />
  <path
     d="M 10.8,33.4 C 11.6,32.5 12.5,32.2 13.6,32.4 C 13.6,33.2 13.5,34.9 13.4,35.7 C 12.1,35.6 11.2,34.6 10.8,33.4 z "
     id="path68"
     style="fill:#ffffff;stroke:#ffffff;stroke-width:0.09375" />
  <path
     d="M 19.3,32.5 C 20.8,32.3 22.2,33.1 23.5,33.6 L 23.6,33.9 C 22.6,34.5 21.6,34.9 20.5,35.2 C 19.8,34.4 19.5,33.5 19.3,32.5 z "
     id="path70"
     style="fill:#ffffff;stroke:#ffffff;stroke-width:0.09375" />
  <path
     d="M 33.7,36.5 C 36,34.1 39,32.6 42.2,31.9 C 38.2,36.5 35.8,42.2 31.8,46.8 C 30.9,46.6 29.9,46.4 28.9,46.1 C 31,43.2 33.3,40.2 33.7,36.5 z "
     id="path72"
     style="fill:#731010;stroke:#731010;stroke-width:0.09375" />
  <path
     d="M 16.5,33.7 L 16.7,33.4 C 17.5,34.2 18,35.1 18.1,36.1 C 17.5,36.1 16.1,36.2 15.5,36.2 C 15.8,35.3 16.1,34.5 16.5,33.7 z "
     id="path74"
     style="fill:#ffffff;stroke:#ffffff;stroke-width:0.09375" />
  <path
     d="M 23.5,33.6 L 23.8,33.7 C 23.7,33.7 23.6,33.9 23.6,33.9 L 23.5,33.6 z "
     id="path76"
     style="fill:#a92439;stroke:#a92439;stroke-width:0.09375" />
</svg>
